<svg width="900" height="170" viewBox="0 0 900 170" fill="none" xmlns="http://www.w3.org/2000/svg">
  <rect width="900" height="170" rx="18" fill="#0B1220"/>
  <rect x="24" y="24" width="852" height="122" rx="14" fill="#020617" stroke="#1F2937"/>

  <text x="42" y="54" fill="#22C55E" font-family="'Fira Code', monospace" font-size="18">loading skills...</text>

  <g font-family="'Fira Code', monospace" font-size="16">
    <g opacity="0">
      <rect x="42" y="76" width="92" height="30" rx="15" fill="#123220"/>
      <text x="68" y="96" fill="#86EFAC">Go</text>
      <animate attributeName="opacity" values="0;1;1" dur="12s" begin="0s" repeatCount="indefinite"/>
    </g>
    <g opacity="0">
      <rect x="148" y="76" width="112" height="30" rx="15" fill="#123220"/>
      <text x="172" y="96" fill="#86EFAC">Java</text>
      <animate attributeName="opacity" values="0;0;1;1" dur="12s" begin="0s" repeatCount="indefinite"/>
    </g>
    <g opacity="0">
      <rect x="274" y="76" width="122" height="30" rx="15" fill="#123220"/>
      <text x="296" y="96" fill="#86EFAC">Python</text>
      <animate attributeName="opacity" values="0;0;0;1;1" dur="12s" begin="0s" repeatCount="indefinite"/>
    </g>
    <g opacity="0">
      <rect x="410" y="76" width="112" height="30" rx="15" fill="#123220"/>
      <text x="428" y="96" fill="#86EFAC">React</text>
      <animate attributeName="opacity" values="0;0;0;0;1;1" dur="12s" begin="0s" repeatCount="indefinite"/>
    </g>
    <g opacity="0">
      <rect x="536" y="76" width="126" height="30" rx="15" fill="#123220"/>
      <text x="555" y="96" fill="#86EFAC">Node.js</text>
      <animate attributeName="opacity" values="0;0;0;0;0;1;1" dur="12s" begin="0s" repeatCount="indefinite"/>
    </g>
    <g opacity="0">
      <rect x="676" y="76" width="148" height="30" rx="15" fill="#123220"/>
      <text x="700" y="96" fill="#86EFAC">Kubernetes</text>
      <animate attributeName="opacity" values="0;0;0;0;0;0;1;1" dur="12s" begin="0s" repeatCount="indefinite"/>
    </g>

    <g opacity="0">
      <rect x="96" y="112" width="124" height="30" rx="15" fill="#10303B"/>
      <text x="116" y="132" fill="#A7F3D0">GraphQL</text>
      <animate attributeName="opacity" values="0;0;0;0;0;0;0;1;1" dur="12s" begin="0s" repeatCount="indefinite"/>
    </g>
    <g opacity="0">
      <rect x="234" y="112" width="112" height="30" rx="15" fill="#10303B"/>
      <text x="253" y="132" fill="#A7F3D0">AWS</text>
      <animate attributeName="opacity" values="0;0;0;0;0;0;0;0;1;1" dur="12s" begin="0s" repeatCount="indefinite"/>
    </g>
    <g opacity="0">
      <rect x="360" y="112" width="132" height="30" rx="15" fill="#10303B"/>
      <text x="380" y="132" fill="#A7F3D0">Terraform</text>
      <animate attributeName="opacity" values="0;0;0;0;0;0;0;0;0;1;1" dur="12s" begin="0s" repeatCount="indefinite"/>
    </g>
    <g opacity="0">
      <rect x="506" y="112" width="120" height="30" rx="15" fill="#10303B"/>
      <text x="523" y="132" fill="#A7F3D0">Redis</text>
      <animate attributeName="opacity" values="0;0;0;0;0;0;0;0;0;0;1;1" dur="12s" begin="0s" repeatCount="indefinite"/>
    </g>
    <g opacity="0">
      <rect x="640" y="112" width="142" height="30" rx="15" fill="#10303B"/>
      <text x="665" y="132" fill="#A7F3D0">PostgreSQL</text>
      <animate attributeName="opacity" values="0;0;0;0;0;0;0;0;0;0;0;1;1" dur="12s" begin="0s" repeatCount="indefinite"/>
    </g>
  </g>
</svg>
